  0
SECTION
  2
HEADER
  9
$ACADVER
  1
AC1015
  9
$ACADMAINTVER
 70
     6
  9
$DWGCODEPAGE
  3
ANSI_1252
  9
$INSBASE
 10
0.0
 20
0.0
 30
0.0
  9
$EXTMIN
 10
-0.096753887
 20
0.4829629132
 30
0.0
  9
$EXTMAX
 10
0.425738914
 20
1.8246153557
 30
0.0
  9
$LIMMIN
 10
0.0
 20
0.0
  9
$LIMMAX
 10
420.0
 20
297.0
  9
$ORTHOMODE
 70
     0
  9
$REGENMODE
 70
     1
  9
$FILLMODE
 70
     1
  9
$QTEXTMODE
 70
     0
  9
$MIRRTEXT
 70
     1
  9
$LTSCALE
 40
1.0
  9
$ATTMODE
 70
     1
  9
$TEXTSIZE
 40
0.003175
  9
$TRACEWID
 40
1.0
  9
$TEXTSTYLE
  7
Standard
  9
$CLAYER
  8
0
  9
$CELTYPE
  6
ByLayer
  9
$CECOLOR
 62
   256
  9
$CELTSCALE
 40
1.0
  9
$DISPSILH
 70
     0
  9
$DIMSCALE
 40
1.0
  9
$DIMASZ
 40
0.003302
  9
$DIMEXO
 40
0.00127
  9
$DIMDLI
 40
3.75
  9
$DIMRND
 40
0.0
  9
$DIMDLE
 40
0.0
  9
$DIMEXE
 40
0.003175
  9
$DIMTP
 40
0.0
  9
$DIMTM
 40
0.0
  9
$DIMTXT
 40
0.003175
  9
$DIMCEN
 40
2.5
  9
$DIMTSZ
 40
0.0
  9
$DIMTOL
 70
     0
  9
$DIMLIM
 70
     0
  9
$DIMTIH
 70
     1
  9
$DIMTOH
 70
     1
  9
$DIMSE1
 70
     0
  9
$DIMSE2
 70
     0
  9
$DIMTAD
 70
     0
  9
$DIMZIN
 70
     1
  9
$DIMBLK
  1

  9
$DIMASO
 70
     1
  9
$DIMSHO
 70
     1
  9
$DIMPOST
  1

  9
$DIMAPOST
  1

  9
$DIMALT
 70
     0
  9
$DIMALTD
 70
     3
  9
$DIMALTF
 40
39.3700787402
  9
$DIMLFAC
 40
1.0
  9
$DIMTOFL
 70
     1
  9
$DIMTVP
 40
0.0
  9
$DIMTIX
 70
     0
  9
$DIMSOXD
 70
     0
  9
$DIMSAH
 70
     0
  9
$DIMBLK1
  1

  9
$DIMBLK2
  1

  9
$DIMSTYLE
  2
ISO-25
  9
$DIMCLRD
 70
     0
  9
$DIMCLRE
 70
     0
  9
$DIMCLRT
 70
     0
  9
$DIMTFAC
 40
1.0
  9
$DIMGAP
 40
0.001524
  9
$DIMJUST
 70
     0
  9
$DIMSD1
 70
     0
  9
$DIMSD2
 70
     0
  9
$DIMTOLJ
 70
     0
  9
$DIMTZIN
 70
     1
  9
$DIMALTZ
 70
     0
  9
$DIMALTTZ
 70
     0
  9
$DIMUPT
 70
     0
  9
$DIMDEC
 70
     2
  9
$DIMTDEC
 70
     2
  9
$DIMALTU
 70
     2
  9
$DIMALTTD
 70
     3
  9
$DIMTXSTY
  7
Standard
  9
$DIMAUNIT
 70
     0
  9
$DIMADEC
 70
     2
  9
$DIMALTRND
 40
0.0
  9
$DIMAZIN
 70
     0
  9
$DIMDSEP
 70
    44
  9
$DIMATFIT
 70
     3
  9
$DIMFRAC
 70
     0
  9
$DIMLDRBLK
  1

  9
$DIMLUNIT
 70
     2
  9
$DIMLWD
 70
    -2
  9
$DIMLWE
 70
    -2
  9
$DIMTMOVE
 70
     0
  9
$LUNITS
 70
     2
  9
$LUPREC
 70
     2
  9
$SKETCHINC
 40
1.0
  9
$FILLETRAD
 40
10.0
  9
$AUNITS
 70
     0
  9
$AUPREC
 70
     2
  9
$MENU
  1
.
  9
$ELEVATION
 40
0.0
  9
$PELEVATION
 40
0.0
  9
$THICKNESS
 40
0.0
  9
$LIMCHECK
 70
     0
  9
$CHAMFERA
 40
0.0
  9
$CHAMFERB
 40
0.0
  9
$CHAMFERC
 40
0.0
  9
$CHAMFERD
 40
0.0
  9
$SKPOLY
 70
     0
  9
$TDCREATE
 40
2458414.523025613
  9
$TDUCREATE
 40
2458414.68969228
  9
$TDUPDATE
 40
2458414.523111331
  9
$TDUUPDATE
 40
2458414.689777998
  9
$TDINDWG
 40
0.0000000116
  9
$TDUSRTIMER
 40
0.0000000116
  9
$USRTIMER
 70
     1
  9
$ANGBASE
 50
0.0
  9
$ANGDIR
 70
     0
  9
$PDMODE
 70
     0
  9
$PDSIZE
 40
-1.0
  9
$PLINEWID
 40
0.0
  9
$SPLFRAME
 70
     0
  9
$SPLINETYPE
 70
     6
  9
$SPLINESEGS
 70
     8
  9
$HANDSEED
  5
9C
  9
$SURFTAB1
 70
     6
  9
$SURFTAB2
 70
     6
  9
$SURFTYPE
 70
     6
  9
$SURFU
 70
     6
  9
$SURFV
 70
     6
  9
$UCSBASE
  2

  9
$UCSNAME
  2

  9
$UCSORG
 10
0.0
 20
0.0
 30
0.0
  9
$UCSXDIR
 10
1.0
 20
0.0
 30
0.0
  9
$UCSYDIR
 10
0.0
 20
1.0
 30
0.0
  9
$UCSORTHOREF
  2

  9
$UCSORTHOVIEW
 70
     0
  9
$UCSORGTOP
 10
0.0
 20
0.0
 30
0.0
  9
$UCSORGBOTTOM
 10
0.0
 20
0.0
 30
0.0
  9
$UCSORGLEFT
 10
0.0
 20
0.0
 30
0.0
  9
$UCSORGRIGHT
 10
0.0
 20
0.0
 30
0.0
  9
$UCSORGFRONT
 10
0.0
 20
0.0
 30
0.0
  9
$UCSORGBACK
 10
0.0
 20
0.0
 30
0.0
  9
$PUCSBASE
  2

  9
$PUCSNAME
  2

  9
$PUCSORG
 10
0.0
 20
0.0
 30
0.0
  9
$PUCSXDIR
 10
1.0
 20
0.0
 30
0.0
  9
$PUCSYDIR
 10
0.0
 20
1.0
 30
0.0
  9
$PUCSORTHOREF
  2

  9
$PUCSORTHOVIEW
 70
     0
  9
$PUCSORGTOP
 10
0.0
 20
0.0
 30
0.0
  9
$PUCSORGBOTTOM
 10
0.0
 20
0.0
 30
0.0
  9
$PUCSORGLEFT
 10
0.0
 20
0.0
 30
0.0
  9
$PUCSORGRIGHT
 10
0.0
 20
0.0
 30
0.0
  9
$PUCSORGFRONT
 10
0.0
 20
0.0
 30
0.0
  9
$PUCSORGBACK
 10
0.0
 20
0.0
 30
0.0
  9
$USERI1
 70
     0
  9
$USERI2
 70
     0
  9
$USERI3
 70
     0
  9
$USERI4
 70
     0
  9
$USERI5
 70
     0
  9
$USERR1
 40
0.0
  9
$USERR2
 40
0.0
  9
$USERR3
 40
0.0
  9
$USERR4
 40
0.0
  9
$USERR5
 40
0.0
  9
$WORLDVIEW
 70
     1
  9
$SHADEDGE
 70
     3
  9
$SHADEDIF
 70
    70
  9
$TILEMODE
 70
     1
  9
$MAXACTVP
 70
    64
  9
$PINSBASE
 10
0.0
 20
0.0
 30
0.0
  9
$PLIMCHECK
 70
     0
  9
$PEXTMIN
 10
1.0000000000E+20
 20
1.0000000000E+20
 30
1.0000000000E+20
  9
$PEXTMAX
 10
-1.0000000000E+20
 20
-1.0000000000E+20
 30
-1.0000000000E+20
  9
$PLIMMIN
 10
0.0
 20
0.0
  9
$PLIMMAX
 10
420.0
 20
297.0
  9
$UNITMODE
 70
     0
  9
$VISRETAIN
 70
     1
  9
$PLINEGEN
 70
     0
  9
$PSLTSCALE
 70
     1
  9
$TREEDEPTH
 70
  3020
  9
$CMLSTYLE
  2
Standard
  9
$CMLJUST
 70
     0
  9
$CMLSCALE
 40
20.0
  9
$PROXYGRAPHICS
 70
     1
  9
$MEASUREMENT
 70
     1
  9
$CELWEIGHT
370
    -1
  9
$ENDCAPS
280
     0
  9
$JOINSTYLE
280
     0
  9
$LWDISPLAY
290
     1
  9
$INSUNITS
 70
     4
  9
$HYPERLINKBASE
  1

  9
$STYLESHEET
  1

  9
$XEDIT
290
     1
  9
$CEPSNTYPE
380
     0
  9
$PSTYLEMODE
290
     1
  9
$FINGERPRINTGUID
  2
{B9C421A3-F307-4A0E-A83D-F0384D47BDB8}
  9
$VERSIONGUID
  2
{FAEB1C32-E019-11D5-929B-00C0DF256EC4}
  9
$EXTNAMES
290
     1
  9
$PSVPSCALE
 40
0.0
  9
$OLESTARTUP
290
     0
  0
ENDSEC
  0
SECTION
  2
CLASSES
  0
CLASS
  1
ACDBDICTIONARYWDFLT
  2
AcDbDictionaryWithDefault
  3
ObjectDBX Classes
 90
        0
280
     0
281
     0
  0
CLASS
  1
VISUALSTYLE
  2
AcDbVisualStyle
  3
ObjectDBX Classes
 90
     4095
280
     0
281
     0
  0
CLASS
  1
MATERIAL
  2
AcDbMaterial
  3
ObjectDBX Classes
 90
     1153
280
     0
281
     0
  0
CLASS
  1
SCALE
  2
AcDbScale
  3
ObjectDBX Classes
 90
     1153
280
     0
281
     0
  0
CLASS
  1
TABLESTYLE
  2
AcDbTableStyle
  3
ObjectDBX Classes
 90
     4095
280
     0
281
     0
  0
CLASS
  1
MLEADERSTYLE
  2
AcDbMLeaderStyle
  3
ACDB_MLEADERSTYLE_CLASS
 90
     4095
280
     0
281
     0
  0
CLASS
  1
SUN
  2
AcDbSun
  3
SCENEOE
 90
     1153
280
     0
281
     0
  0
CLASS
  1
ACDBPLACEHOLDER
  2
AcDbPlaceHolder
  3
ObjectDBX Classes
 90
        0
280
     0
281
     0
  0
CLASS
  1
LAYOUT
  2
AcDbLayout
  3
ObjectDBX Classes
 90
        0
280
     0
281
     0
  0
ENDSEC
  0
SECTION
  2
TABLES
  0
TABLE
  2
VPORT
  5
8
330
0
100
AcDbSymbolTable
 70
     1
  0
VPORT
  5
29
330
8
100
AcDbSymbolTableRecord
100
AcDbViewportTableRecord
  2
*Active
 70
     0
 10
0.0
 20
0.0
 11
1.0
 21
1.0
 12
0.1644925135
 22
1.1537891344
 13
0.0
 23
0.0
 14
10.0
 24
10.0
 15
10.0
 25
10.0
 16
0.0
 26
0.0
 36
1.0
 17
0.0
 27
0.0
 37
0.0
 40
1.3684854914
 41
0.3894397568
 42
50.0
 43
0.0
 44
0.0
 50
0.0
 51
0.0
 71
     0
 72
   100
 73
     1
 74
     3
 75
     0
 76
     0
 77
     0
 78
     0
281
     0
 65
     1
110
0.0
120
0.0
130
0.0
111
1.0
121
0.0
131
0.0
112
0.0
122
1.0
132
0.0
 79
     0
146
0.0
  0
ENDTAB
  0
TABLE
  2
LTYPE
  5
5
330
0
100
AcDbSymbolTable
 70
     6
  0
LTYPE
  5
14
330
5
100
AcDbSymbolTableRecord
100
AcDbLinetypeTableRecord
  2
ByBlock
 70
     0
  3

 72
    65
 73
     0
 40
0.0
  0
LTYPE
  5
15
330
5
100
AcDbSymbolTableRecord
100
AcDbLinetypeTableRecord
  2
ByLayer
 70
     0
  3

 72
    65
 73
     0
 40
0.0
  0
LTYPE
  5
16
330
5
100
AcDbSymbolTableRecord
100
AcDbLinetypeTableRecord
  2
Continuous
 70
     0
  3
Solid line
 72
    65
 73
     0
 40
0.0
  0
LTYPE
  5
6E
330
5
100
AcDbSymbolTableRecord
100
AcDbLinetypeTableRecord
  2
HIDDEN
 70
     0
  3
Hidden __ __ __ __ __ __ __ __ __ __ __ __ __ __
 72
    65
 73
     2
 40
0.001905
 49
0.00127
 74
     0
 49
-0.000635
 74
     0
  0
LTYPE
  5
6F
330
5
100
AcDbSymbolTableRecord
100
AcDbLinetypeTableRecord
  2
PHANTOM
 70
     0
  3
Phantom ______  __  __  ______  __  __  ______
 72
    65
 73
     6
 40
0.0127
 49
0.00635
 74
     0
 49
-0.00127
 74
     0
 49
0.00127
 74
     0
 49
-0.00127
 74
     0
 49
0.00127
 74
     0
 49
-0.00127
 74
     0
  0
LTYPE
  5
70
330
5
100
AcDbSymbolTableRecord
100
AcDbLinetypeTableRecord
  2
CENTER
 70
     0
  3
Center ____ _ ____ _ ____ _ ____ _ ____ _ ____
 72
    65
 73
     4
 40
0.01016
 49
0.00635
 74
     0
 49
-0.00127
 74
     0
 49
0.00127
 74
     0
 49
-0.00127
 74
     0
  0
LTYPE
  5
71
330
5
100
AcDbSymbolTableRecord
100
AcDbLinetypeTableRecord
  2
CENTERX2
 70
     0
  3
Center (2x) ________  __  ________  __  _____
 72
    65
 73
     4
 40
0.02032
 49
0.0127
 74
     0
 49
-0.00254
 74
     0
 49
0.00254
 74
     0
 49
-0.00254
 74
     0
  0
LTYPE
  5
72
330
5
100
AcDbSymbolTableRecord
100
AcDbLinetypeTableRecord
  2
DOT2
 70
     0
  3
Dot (.5x) ........................................
 72
    65
 73
     2
 40
0.000635
 49
0.0
 74
     0
 49
-0.000635
 74
     0
  0
ENDTAB
  0
TABLE
  2
LAYER
  5
2
330
0
100
AcDbSymbolTable
 70
     1
  0
LAYER
  5
10
330
2
100
AcDbSymbolTableRecord
100
AcDbLayerTableRecord
  2
0
 70
     0
 62
     7
  6
Continuous
370
    -3
390
F
  0
ENDTAB
  0
TABLE
  2
STYLE
  5
3
330
0
100
AcDbSymbolTable
 70
     2
  0
STYLE
  5
11
330
3
100
AcDbSymbolTableRecord
100
AcDbTextStyleTableRecord
  2
Standard
 70
     0
 40
0.0
 41
1.0
 50
0.0
 71
     0
 42
0.003175
  3
txt
  4

  0
STYLE
  5
99
330
3
100
AcDbSymbolTableRecord
100
AcDbTextStyleTableRecord
  2
SLDTEXTSTYLE0
 70
     0
 40
0.0
 41
0.7
 50
0.0
 71
     0
 42
0.003175
  3
TXT
  4

  0
ENDTAB
  0
TABLE
  2
VIEW
  5
6
330
0
100
AcDbSymbolTable
 70
     0
  0
ENDTAB
  0
TABLE
  2
UCS
  5
7
330
0
100
AcDbSymbolTable
 70
     0
  0
ENDTAB
  0
TABLE
  2
APPID
  5
9
330
0
100
AcDbSymbolTable
 70
     1
  0
APPID
  5
12
330
9
100
AcDbSymbolTableRecord
100
AcDbRegAppTableRecord
  2
ACAD
 70
     0
  0
ENDTAB
  0
TABLE
  2
DIMSTYLE
  5
A
330
0
100
AcDbSymbolTable
 70
     1
100
AcDbDimStyleTable
  0
DIMSTYLE
105
27
330
A
100
AcDbSymbolTableRecord
100
AcDbDimStyleTableRecord
  2
ISO-25
 70
     0
 41
2.5
 42
0.625
 43
3.75
 44
1.25
 73
     0
 74
     0
 77
     1
 78
     8
140
2.5
141
2.5
143
0.0393700787
147
0.625
171
     3
172
     1
178
     0
271
     2
272
     2
274
     3
278
    44
283
     0
284
     8
340
11
  0
ENDTAB
  0
TABLE
  2
BLOCK_RECORD
  5
1
330
0
100
AcDbSymbolTable
 70
     1
  0
BLOCK_RECORD
  5
1F
330
1
100
AcDbSymbolTableRecord
100
AcDbBlockTableRecord
  2
*Model_Space
340
22
  0
BLOCK_RECORD
  5
1B
330
1
100
AcDbSymbolTableRecord
100
AcDbBlockTableRecord
  2
*Paper_Space
340
1E
  0
BLOCK_RECORD
  5
23
330
1
100
AcDbSymbolTableRecord
100
AcDbBlockTableRecord
  2
*Paper_Space0
340
26
  0
ENDTAB
  0
ENDSEC
  0
SECTION
  2
BLOCKS
  0
BLOCK
  5
20
330
1F
100
AcDbEntity
  8
0
100
AcDbBlockBegin
  2
*Model_Space
 70
     0
 10
0.0
 20
0.0
 30
0.0
  3
*Model_Space
  1

  0
ENDBLK
  5
21
330
1F
100
AcDbEntity
  8
0
100
AcDbBlockEnd
  0
BLOCK
  5
1C
330
1B
100
AcDbEntity
 67
     1
  8
0
100
AcDbBlockBegin
  2
*Paper_Space
 70
     0
 10
0.0
 20
0.0
 30
0.0
  3
*Paper_Space
  1

  0
ENDBLK
  5
1D
330
1B
100
AcDbEntity
 67
     1
  8
0
100
AcDbBlockEnd
  0
BLOCK
  5
24
330
23
100
AcDbEntity
  8
0
100
AcDbBlockBegin
  2
*Paper_Space0
 70
     0
 10
0.0
 20
0.0
 30
0.0
  3
*Paper_Space0
  1

  0
ENDBLK
  5
25
330
23
100
AcDbEntity
  8
0
100
AcDbBlockEnd
  0
ENDSEC
  0
SECTION
  2
ENTITIES
  0
SPLINE
  5
73
330
1F
100
AcDbEntity
  8
0
  6
Continuous
 62
     7
370
    25
100
AcDbSpline
210
0.0
220
0.0
230
1.0
 70
    24
 71
     3
 72
     8
 73
     4
 74
     0
 42
0.000000001
 43
0.00000001
 40
0.0
 40
0.0
 40
0.0
 40
0.0
 40
1.0
 40
1.0
 40
1.0
 40
1.0
 10
0.0331562264413123
 20
0.5722185099309768
 30
0.0
 10
0.0333441422929946
 20
0.572349705072283
 30
0.0
 10
0.033532058144677
 20
0.5724809002135893
 30
0.0
 10
0.0337199739963593
 20
0.5726120953548957
 30
0.0
  0
SPLINE
  5
74
330
1F
100
AcDbEntity
  8
0
  6
Continuous
 62
     7
370
    25
100
AcDbSpline
210
0.0
220
0.0
230
1.0
 70
     8
 71
     3
 72
    14
 73
    10
 74
     0
 42
0.000000001
 43
0.00000001
 40
0.0
 40
0.0
 40
0.0
 40
0.0
 40
0.25
 40
0.25
 40
0.5
 40
0.5
 40
0.75
 40
0.75
 40
1.0
 40
1.0
 40
1.0
 40
1.0
 10
0.0337199739963593
 20
0.5726120953548957
 30
0.0
 10
0.0390216033619848
 20
0.5651952572015746
 30
0.0
 10
0.0418658884758633
 20
0.5612249779857864
 30
0.0
 10
0.0496047056468083
 20
0.5507505725209261
 30
0.0
 10
0.0538917966805002
 20
0.545124680547802
 30
0.0
 10
0.0624601880601458
 20
0.5342340131192185
 30
0.0
 10
0.0668027611752697
 20
0.5288828622808698
 30
0.0
 10
0.0754288194063503
 20
0.5186451477940517
 30
0.0
 10
0.0785247280827659
 20
0.5151062820199406
 30
0.0
 10
0.0845317099495293
 20
0.5082479324975135
 30
0.0
  0
SPLINE
  5
75
330
1F
100
AcDbEntity
  8
0
  6
Continuous
 62
     7
370
    25
100
AcDbSpline
210
0.0
220
0.0
230
1.0
 70
     8
 71
     3
 72
    18
 73
    14
 74
     0
 42
0.000000001
 43
0.00000001
 40
0.0
 40
0.0
 40
0.0
 40
0.0
 40
0.1249999999999982
 40
0.1249999999999982
 40
0.2499999999999967
 40
0.2499999999999967
 40
0.4999999999999967
 40
0.4999999999999967
 40
0.7499999999999967
 40
0.7499999999999967
 40
0.8749999999999983
 40
0.8749999999999983
 40
1.0
 40
1.0
 40
1.0
 40
1.0
 10
0.0845317103107039
 20
0.5082479328440219
 30
0.0
 10
0.0901693539058165
 20
0.5136566459724887
 30
0.0
 10
0.0928431900127193
 20
0.5162007949084537
 30
0.0
 10
0.1009624663128778
 20
0.5251724973853171
 30
0.0
 10
0.1043910311686866
 20
0.5296998442080058
 30
0.0
 10
0.11369601107954
 20
0.5444585421730943
 30
0.0
 10
0.1184664015492258
 20
0.5554917331782097
 30
0.0
 10
0.1241910290939946
 20
0.5780190779473866
 30
0.0
 10
0.1252982450859984
 20
0.5897084421660023
 30
0.0
 10
0.1240782619430231
 20
0.6075507125142672
 30
0.0
 10
0.12311111575161
 20
0.6133501335707754
 30
0.0
 10
0.1202824365836194
 20
0.6244003789738326
 30
0.0
 10
0.1190014306821102
 20
0.6282292630435109
 30
0.0
 10
0.1165037070384642
 20
0.6356358892548212
 30
0.0
  0
SPLINE
  5
76
330
1F
100
AcDbEntity
  8
0
  6
Continuous
 62
     7
370
    25
100
AcDbSpline
210
0.0
220
0.0
230
1.0
 70
    24
 71
     3
 72
     8
 73
     4
 74
     0
 42
0.000000001
 43
0.00000001
 40
0.0
 40
0.0
 40
0.0
 40
0.0
 40
1.0
 40
1.0
 40
1.0
 40
1.0
 10
0.1165037067338533
 20
0.6356358900951087
 30
0.0
 10
0.1145728611054339
 20
0.6409622454955866
 30
0.0
 10
0.1126420154770145
 20
0.6462886008960644
 30
0.0
 10
0.1107111698485951
 20
0.6516149562965424
 30
0.0
  0
SPLINE
  5
77
330
1F
100
AcDbEntity
  8
0
  6
Continuous
 62
     7
370
    25
100
AcDbSpline
210
0.0
220
0.0
230
1.0
 70
     8
 71
     3
 72
    14
 73
    10
 74
     0
 42
0.000000001
 43
0.00000001
 40
0.0
 40
0.0
 40
0.0
 40
0.0
 40
0.2500000000000001
 40
0.2500000000000001
 40
0.5000000000000001
 40
0.5000000000000001
 40
0.7500000000000002
 40
0.7500000000000002
 40
1.0
 40
1.0
 40
1.0
 40
1.0
 10
0.1107111694088553
 20
0.6516149560424804
 30
0.0
 10
0.10270387651535
 20
0.6469886991996272
 30
0.0
 10
0.0988203579861757
 20
0.6447465644165677
 30
0.0
 10
0.086638329100958
 20
0.6375470731089997
 30
0.0
 10
0.0807735736599634
 20
0.6340003311299155
 30
0.0
 10
0.0690880686457106
 20
0.6267395917502157
 30
0.0
 10
0.0629172306850592
 20
0.6227951851990265
 30
0.0
 10
0.0518673628240633
 20
0.6155547187399399
 30
0.0
 10
0.0477535406197015
 20
0.6127943370278974
 30
0.0
 10
0.0400783896046416
 20
0.6076355969274734
 30
0.0
  0
SPLINE
  5
78
330
1F
100
AcDbEntity
  8
0
  6
Continuous
 62
     7
370
    25
100
AcDbSpline
210
0.0
220
0.0
230
1.0
 70
    24
 71
     3
 72
     8
 73
     4
 74
     0
 42
0.000000001
 43
0.00000001
 40
0.0
 40
0.0
 40
0.0
 40
0.0
 40
1.0
 40
1.0
 40
1.0
 40
1.0
 10
0.0400783893234166
 20
0.6076355973408982
 30
0.0
 10
0.0399491052077051
 20
0.6078256561480405
 30
0.0
 10
0.0398198210919936
 20
0.6080157149551826
 30
0.0
 10
0.0396905369762821
 20
0.6082057737623248
 30
0.0
  0
SPLINE
  5
79
330
1F
100
AcDbEntity
  8
0
  6
Continuous
 62
     7
370
    25
100
AcDbSpline
210
0.0
220
0.0
230
1.0
 70
     8
 71
     3
 72
    22
 73
    18
 74
     0
 42
0.000000001
 43
0.00000001
 40
0.0
 40
0.0
 40
0.0
 40
0.0
 40
0.1249999999999991
 40
0.1249999999999991
 40
0.2499999999999983
 40
0.2499999999999983
 40
0.3749999999999976
 40
0.3749999999999976
 40
0.4374999999999979
 40
0.4374999999999979
 40
0.4999999999999981
 40
0.4999999999999981
 40
0.6249999999999993
 40
0.6249999999999993
 40
0.7500000000000004
 40
0.7500000000000004
 40
1.0
 40
1.0
 40
1.0
 40
1.0
 10
0.0396905373832592
 20
0.6082057740530151
 30
0.0
 10
0.0434270598642743
 20
0.6108746488760936
 30
0.0
 10
0.045108601943842
 20
0.612075494744118
 30
0.0
 10
0.0510836196423839
 20
0.6163504273882533
 30
0.0
 10
0.0539609462150308
 20
0.6184133830777181
 30
0.0
 10
0.0590231935511831
 20
0.6220535351774816
 30
0.0
 10
0.0623112850012084
 20
0.6244255731937629
 30
0.0
 10
0.0661520611318074
 20
0.6272019056761462
 30
0.0
 10
0.0678906284060097
 20
0.6284598348120644
 30
0.0
 10
0.0702236349266072
 20
0.6301487998536547
 30
0.0
 10
0.0708334818328436
 20
0.6305903091818068
 30
0.0
 10
0.0780556764872957
 20
0.6358227322333597
 30
0.0
 10
0.07862132820313
 20
0.6362341397223188
 30
0.0
 10
0.0846031170545881
 20
0.6405449235170202
 30
0.0
 10
0.0873393585714601
 20
0.6425035580107571
 30
0.0
 10
0.095369667131197
 20
0.648189195959973
 30
0.0
 10
0.0994147375353759
 20
0.650989564791934
 30
0.0
 10
0.1069696053888489
 20
0.6562113166392831
 30
0.0
  0
SPLINE
  5
7A
330
1F
100
AcDbEntity
  8
0
  6
Continuous
 62
     7
370
    25
100
AcDbSpline
210
0.0
220
0.0
230
1.0
 70
     8
 71
     3
 72
    18
 73
    14
 74
     0
 42
0.000000001
 43
0.00000001
 40
0.0
 40
0.0
 40
0.0
 40
0.0
 40
0.1250000000000022
 40
0.1250000000000022
 40
0.2500000000000044
 40
0.2500000000000044
 40
0.5000000000000044
 40
0.5000000000000044
 40
0.7500000000000044
 40
0.7500000000000044
 40
0.8750000000000022
 40
0.8750000000000022
 40
1.0
 40
1.0
 40
1.0
 40
1.0
 10
0.1069696052091264
 20
0.6562113171228718
 30
0.0
 10
0.1049393691141932
 20
0.661674181490161
 30
0.0
 10
0.1039772238528557
 20
0.6642527478550347
 30
0.0
 10
0.1010107295249518
 20
0.6728132834867787
 30
0.0
 10
0.0997326687791083
 20
0.6768286123057085
 30
0.0
 10
0.0962362479045659
 20
0.6894434690725243
 30
0.0
 10
0.0944916179323213
 20
0.6980175221325186
 30
0.0
 10
0.0922169253836577
 20
0.7154100567311588
 30
0.0
 10
0.0916764790893055
 20
0.724085475875957
 30
0.0
 10
0.0920297120457656
 20
0.7372795710605708
 30
0.0
 10
0.0923918145208737
 20
0.7418110803488487
 30
0.0
 10
0.093321772477857
 20
0.7500786026975774
 30
0.0
 10
0.0937589365426662
 20
0.7531715919725077
 30
0.0
 10
0.094586766775248
 20
0.7589441944128901
 30
0.0
  0
SPLINE
  5
7B
330
1F
100
AcDbEntity
  8
0
  6
Continuous
 62
     7
370
    25
100
AcDbSpline
210
0.0
220
0.0
230
1.0
 70
     8
 71
     3
 72
    80
 73
    76
 74
     0
 42
0.000000001
 43
0.00000001
 40
0.0
 40
0.0
 40
0.0
 40
0.0
 40
0.0156250000000008
 40
0.0156250000000008
 40
0.0312500000000016
 40
0.0312500000000016
 40
0.0625000000000034
 40
0.0625000000000034
 40
0.1250000000000071
 40
0.1250000000000071
 40
0.1406250000000072
 40
0.1406250000000072
 40
0.1562500000000073
 40
0.1562500000000073
 40
0.1718750000000074
 40
0.1718750000000074
 40
0.1875000000000077
 40
0.1875000000000077
 40
0.2187500000000071
 40
0.2187500000000071
 40
0.2343750000000072
 40
0.2343750000000072
 40
0.2500000000000073
 40
0.2500000000000073
 40
0.2812500000000087
 40
0.2812500000000087
 40
0.3125000000000101
 40
0.3125000000000101
 40
0.3437500000000114
 40
0.3437500000000114
 40
0.3750000000000128
 40
0.3750000000000128
 40
0.3906250000000129
 40
0.3906250000000129
 40
0.406250000000013
 40
0.406250000000013
 40
0.4218750000000131
 40
0.4218750000000131
 40
0.4375000000000133
 40
0.4375000000000133
 40
0.4687500000000143
 40
0.4687500000000143
 40
0.5000000000000153
 40
0.5000000000000153
 40
0.5312500000000164
 40
0.5468750000000163
 40
0.5468750000000163
 40
0.5625000000000162
 40
0.5625000000000162
 40
0.5937500000000162
 40
0.5937500000000162
 40
0.6250000000000161
 40
0.6250000000000161
 40
0.656250000000016
 40
0.6718750000000161
 40
0.6718750000000161
 40
0.6875000000000162
 40
0.6875000000000162
 40
0.7187500000000169
 40
0.7343750000000173
 40
0.7421875000000173
 40
0.7421875000000173
 40
0.7500000000000174
 40
0.7500000000000174
 40
0.7812500000000153
 40
0.7812500000000153
 40
0.8125000000000133
 40
0.8125000000000133
 40
0.8750000000000091
 40
0.8750000000000091
 40
0.9375000000000049
 40
0.9375000000000049
 40
0.9687500000000024
 40
0.9687500000000024
 40
1.0
 40
1.0
 40
1.0
 40
1.0
 10
0.0945867671777688
 20
0.758944196643542
 30
0.0
 10
0.0954796780953548
 20
0.7638924459773606
 30
0.0
 10
0.0958813506333153
 20
0.7661191840514696
 30
0.0
 10
0.0973144087539214
 20
0.7740355807689427
 30
0.0
 10
0.0980071553473117
 20
0.7778471998683332
 30
0.0
 10
0.099849790523754
 20
0.7879305299299646
 30
0.0
 10
0.1013642148511005
 20
0.7961328629476527
 30
0.0
 10
0.1053942274490608
 20
0.8181233253138394
 30
0.0
 10
0.108344262226445
 20
0.8344857968044129
 30
0.0
 10
0.1113583566891617
 20
0.8513723685320786
 30
0.0
 10
0.1122012428389629
 20
0.856106300952224
 30
0.0
 10
0.113277630423988
 20
0.8621599251384131
 30
0.0
 10
0.1142492201403296
 20
0.8676312054400352
 30
0.0
 10
0.1151867077053484
 20
0.8729130500249901
 30
0.0
 10
0.1159386459939566
 20
0.8771510727045883
 30
0.0
 10
0.11745092048222
 20
0.885671818824532
 30
0.0
 10
0.1179839080355016
 20
0.888673591678941
 30
0.0
 10
0.1200512028656935
 20
0.9003043580951577
 30
0.0
 10
0.1214194299252299
 20
0.9079838852068094
 30
0.0
 10
0.1232530214967247
 20
0.9182477312484689
 30
0.0
 10
0.1238909881314651
 20
0.9218144085325498
 30
0.0
 10
0.1252204602894305
 20
0.9292385536411016
 30
0.0
 10
0.1261182875042904
 20
0.934245828325578
 30
0.0
 10
0.1276541471225162
 20
0.9428049958633148
 30
0.0
 10
0.1292963837930499
 20
0.9519458837251601
 30
0.0
 10
0.1319651548245343
 20
0.9667924106939394
 30
0.0
 10
0.1332271903832006
 20
0.9738127342291549
 30
0.0
 10
0.1360395165975612
 20
0.9894653470025567
 30
0.0
 10
0.1373736212082431
 20
0.9968951581724076
 30
0.0
 10
0.1398909367612583
 20
1.010924024026407
 30
0.0
 10
0.1414979846717104
 20
1.019886492385809
 30
0.0
 10
0.1431902010474019
 20
1.029328332405305
 30
0.0
 10
0.1438047539892057
 20
1.032757982032119
 30
0.0
 10
0.1451348215059593
 20
1.040182020526375
 30
0.0
 10
0.1461635062409064
 20
1.045924922706972
 30
0.0
 10
0.1470691565363123
 20
1.050981412120166
 30
0.0
 10
0.1477452087958418
 20
1.054756215257533
 30
0.0
 10
0.1494763456775515
 20
1.064422470799157
 30
0.0
 10
0.149865900350187
 20
1.066597663818029
 30
0.0
 10
0.1520837998244731
 20
1.078981238140901
 30
0.0
 10
0.1532904000971095
 20
1.085717353742627
 30
0.0
 10
0.1558991399038846
 20
1.100278146872888
 30
0.0
 10
0.1576048958249817
 20
1.109796397198912
 30
0.0
 10
0.1595669431982416
 20
1.120742993970025
 30
0.0
 10
0.1613009450047373
 20
1.130415874122412
 30
0.0
 10
0.163428646226059
 20
1.142283153135879
 30
0.0
 10
0.1649346024657904
 20
1.15068231666954
 30
0.0
 10
0.1661173484306335
 20
1.157278546840878
 30
0.0
 10
0.1674806784417256
 20
1.164881744515165
 30
0.0
 10
0.1688674701353596
 20
1.172615587794444
 30
0.0
 10
0.1722633253677713
 20
1.191553315493715
 30
0.0
 10
0.17342293167155
 20
1.19802016236028
 30
0.0
 10
0.1756950966991867
 20
1.210691746894875
 30
0.0
 10
0.1775454975230931
 20
1.221011478620525
 30
0.0
 10
0.1796153139267676
 20
1.232555275333232
 30
0.0
 10
0.1810439505469434
 20
1.240523154249936
 30
0.0
 10
0.1814686267966119
 20
1.24289169085079
 30
0.0
 10
0.1846999236206145
 20
1.260913783525584
 30
0.0
 10
0.1873138893397684
 20
1.275492721169861
 30
0.0
 10
0.1892831865786296
 20
1.286475960451449
 30
0.0
 10
0.1898956719452518
 20
1.289891879864258
 30
0.0
 10
0.1902525512642624
 20
1.29188222988692
 30
0.0
 10
0.1901572107595861
 20
1.291350535924207
 30
0.0
 10
0.1920324782170505
 20
1.301808785516101
 30
0.0
 10
0.193448273074849
 20
1.309703987289165
 30
0.0
 10
0.1961110245741002
 20
1.32455159503439
 30
0.0
 10
0.1970945373092972
 20
1.330035332654774
 30
0.0
 10
0.2013724816613048
 20
1.353884362111432
 30
0.0
 10
0.2038081359686661
 20
1.367459115512102
 30
0.0
 10
0.2092173958062683
 20
1.397595116929429
 30
0.0
 10
0.2117079385808401
 20
1.411464842112081
 30
0.0
 10
0.2159126893466134
 20
1.434869773417149
 30
0.0
 10
0.2176224038617143
 20
1.44438368609564
 30
0.0
 10
0.219403482636747
 20
1.454292628247424
 30
0.0
 10
0.2207380419485331
 20
1.461715860502129
 30
0.0
 10
0.2225166211845887
 20
1.471607853935645
 30
0.0
  0
SPLINE
  5
7C
330
1F
100
AcDbEntity
  8
0
  6
Continuous
 62
     7
370
    25
100
AcDbSpline
210
0.0
220
0.0
230
1.0
 70
     8
 71
     3
 72
    26
 73
    22
 74
     0
 42
0.000000001
 43
0.00000001
 40
0.0
 40
0.0
 40
0.0
 40
0.0
 40
0.0312499999999994
 40
0.0312499999999994
 40
0.0624999999999989
 40
0.0624999999999989
 40
0.1249999999999976
 40
0.1249999999999976
 40
0.249999999999997
 40
0.249999999999997
 40
0.4999999999999973
 40
0.4999999999999973
 40
0.7499999999999977
 40
0.7499999999999977
 40
0.8749999999999986
 40
0.8749999999999986
 40
0.9375
 40
0.9375
 40
0.96875
 40
0.96875
 40
1.0
 40
1.0
 40
1.0
 40
1.0
 10
0.2225166271552734
 20
1.471607884317563
 30
0.0
 10
0.2234794804604257
 20
1.476507377750953
 30
0.0
 10
0.2239329684221428
 20
1.478821322969701
 30
0.0
 10
0.2254978219377649
 20
1.486427645533683
 30
0.0
 10
0.226277040373592
 20
1.490038928427323
 30
0.0
 10
0.2287705382502832
 20
1.500714028993816
 30
0.0
 10
0.230739470613374
 20
1.508008917403155
 30
0.0
 10
0.2372818592765873
 20
1.529870402864671
 30
0.0
 10
0.2422694047847259
 20
1.543747558245135
 30
0.0
 10
0.2598459141857176
 20
1.585162701515866
 30
0.0
 10
0.2746183478029161
 20
1.611391830878789
 30
0.0
 10
0.3096422375109577
 20
1.659999630276696
 30
0.0
 10
0.3298311652943068
 20
1.682299337402258
 30
0.0
 10
0.3635771924933583
 20
1.712104083233652
 30
0.0
 10
0.3750027411265708
 20
1.721115426195119
 30
0.0
 10
0.393892830998242
 20
1.734402934810703
 30
0.0
 10
0.4002646658092793
 20
1.738621172635294
 30
0.0
 10
0.4093731322152962
 20
1.744228154191873
 30
0.0
 10
0.412901428403149
 20
1.746316839460933
 30
0.0
 10
0.4190716529902089
 20
1.749893073750766
 30
0.0
 10
0.4213969103597419
 20
1.751215290314621
 30
0.0
 10
0.4257389139767775
 20
1.753680911790412
 30
0.0
  0
SPLINE
  5
7D
330
1F
100
AcDbEntity
  8
0
  6
Continuous
 62
     7
370
    25
100
AcDbSpline
210
0.0
220
0.0
230
1.0
 70
     8
 71
     3
 72
    26
 73
    22
 74
     0
 42
0.000000001
 43
0.00000001
 40
0.0
 40
0.0
 40
0.0
 40
0.0
 40
0.03125
 40
0.03125
 40
0.0625000000000001
 40
0.0625000000000001
 40
0.125
 40
0.125
 40
0.2499999999999993
 40
0.2499999999999993
 40
0.4999999999999984
 40
0.4999999999999984
 40
0.7499999999999973
 40
0.7499999999999973
 40
0.8749999999999967
 40
0.8749999999999967
 40
0.9374999999999973
 40
0.9374999999999973
 40
0.9687499999999987
 40
0.9687499999999987
 40
1.0
 40
1.0
 40
1.0
 40
1.0
 10
0.425738901554273
 20
1.753680905311243
 30
0.0
 10
0.4204126362170825
 20
1.750902900790269
 30
0.0
 10
0.4178986443723431
 20
1.749588525064025
 30
0.0
 10
0.409545472299616
 20
1.745408772801676
 30
0.0
 10
0.405565940610435
 20
1.74351615510173
 30
0.0
 10
0.3934038142653382
 20
1.738129529167506
 30
0.0
 10
0.3849016190501622
 20
1.734832679391788
 30
0.0
 10
0.3592196624534027
 20
1.726008897988773
 30
0.0
 10
0.3417599371540704
 20
1.721635637633399
 30
0.0
 10
0.2884114021097785
 20
1.712968384178772
 30
0.0
 10
0.2518575128115792
 20
1.713283055821582
 30
0.0
 10
0.1809220119668612
 20
1.72606379469486
 30
0.0
 10
0.146542084760924
 20
1.738536342311753
 30
0.0
 10
0.0995971850241172
 20
1.765267489605297
 30
0.0
 10
0.0846210443652881
 20
1.775574279505371
 30
0.0
 10
0.0638350616381506
 20
1.792643020941841
 30
0.0
 10
0.0570993496004296
 20
1.798610940813376
 30
0.0
 10
0.0473609360434391
 20
1.808120455101474
 30
0.0
 10
0.0441062707897873
 20
1.811489896158342
 30
0.0
 10
0.0382574148792845
 20
1.817764759706082
 30
0.0
 10
0.0361004173968462
 20
1.820152872735958
 30
0.0
 10
0.032078865189402
 20
1.824615355658765
 30
0.0
  0
SPLINE
  5
7E
330
1F
100
AcDbEntity
  8
0
  6
Continuous
 62
     7
370
    25
100
AcDbSpline
210
0.0
220
0.0
230
1.0
 70
     8
 71
     3
 72
    26
 73
    22
 74
     0
 42
0.000000001
 43
0.00000001
 40
0.0
 40
0.0
 40
0.0
 40
0.0
 40
0.0312499999999991
 40
0.0312499999999991
 40
0.0624999999999983
 40
0.0624999999999983
 40
0.1249999999999963
 40
0.1249999999999963
 40
0.2499999999999953
 40
0.2499999999999953
 40
0.4999999999999962
 40
0.4999999999999962
 40
0.7499999999999971
 40
0.7499999999999971
 40
0.8749999999999984
 40
0.8749999999999984
 40
0.9374999999999991
 40
0.9374999999999991
 40
0.9687499999999996
 40
0.9687499999999996
 40
1.0
 40
1.0
 40
1.0
 40
1.0
 10
0.0320788741914711
 20
1.824615344922814
 30
0.0
 10
0.0352874291174072
 20
1.820788792159157
 30
0.0
 10
0.0368035484663697
 20
1.818982561145523
 30
0.0
 10
0.0417408279628786
 20
1.812987510707672
 30
0.0
 10
0.0440621479873676
 20
1.810113083714848
 30
0.0
 10
0.0508051873845177
 20
1.801468079966491
 30
0.0
 10
0.0552465765659075
 20
1.795355092446967
 30
0.0
 10
0.0681561444768357
 20
1.776533831384367
 30
0.0
 10
0.0758263954144851
 20
1.763939682157341
 30
0.0
 10
0.0970328282528223
 20
1.724252727347993
 30
0.0
 10
0.1081777186254407
 20
1.696287169332384
 30
0.0
 10
0.1240308828670189
 20
1.638504655694476
 30
0.0
 10
0.1287161531060293
 20
1.608785151803018
 30
0.0
 10
0.1307339122197167
 20
1.563805992527599
 30
0.0
 10
0.1305773724507151
 20
1.549252421032404
 30
0.0
 10
0.1290666207707101
 20
1.526204486046709
 30
0.0
 10
0.1283519638539265
 20
1.518595528725845
 30
0.0
 10
0.1270016423248288
 20
1.507984087560487
 30
0.0
 10
0.1264138697865705
 20
1.503925826852892
 30
0.0
 10
0.1253265906288775
 20
1.496876754852764
 30
0.0
 10
0.1248970367264191
 20
1.494236295488858
 30
0.0
 10
0.1240922928709507
 20
1.489307830305408
 30
0.0
  0
SPLINE
  5
7F
330
1F
100
AcDbEntity
  8
0
  6
Continuous
 62
     7
370
    25
100
AcDbSpline
210
0.0
220
0.0
230
1.0
 70
     8
 71
     3
 72
    59
 73
    55
 74
     0
 42
0.000000001
 43
0.00000001
 40
0.0
 40
0.0
 40
0.0
 40
0.0
 40
0.0312500000000002
 40
0.0312500000000002
 40
0.0625000000000006
 40
0.0625000000000006
 40
0.1250000000000006
 40
0.1250000000000006
 40
0.2500000000000003
 40
0.2500000000000003
 40
0.3125000000000002
 40
0.3125000000000002
 40
0.3750000000000001
 40
0.3750000000000001
 40
0.3906250000000003
 40
0.3984375
 40
0.3984375
 40
0.4062499999999997
 40
0.4062499999999997
 40
0.421874999999999
 40
0.421874999999999
 40
0.4374999999999982
 40
0.4374999999999982
 40
0.4531249999999976
 40
0.4531249999999976
 40
0.4687499999999968
 40
0.4687499999999968
 40
0.4999999999999961
 40
0.4999999999999961
 40
0.6249999999999928
 40
0.6249999999999928
 40
0.6562499999999919
 40
0.6562499999999919
 40
0.6718749999999918
 40
0.6718749999999918
 40
0.6874999999999917
 40
0.6874999999999917
 40
0.7031249999999916
 40
0.7031249999999916
 40
0.7187499999999915
 40
0.7187499999999915
 40
0.7499999999999922
 40
0.7499999999999922
 40
0.8749999999999968
 40
0.8749999999999968
 40
0.9062499999999976
 40
0.9062499999999976
 40
0.9374999999999982
 40
0.9374999999999982
 40
0.968749999999999
 40
0.968749999999999
 40
0.9843749999999996
 40
0.9843749999999996
 40
1.0
 40
1.0
 40
1.0
 40
1.0
 10
0.1240922925974532
 20
1.489307828784381
 30
0.0
 10
0.1223138436120914
 20
1.479417177376362
 30
0.0
 10
0.1212832756450973
 20
1.473685571580922
 30
0.0
 10
0.1188938386569243
 20
1.46039336447613
 30
0.0
 10
0.1174193660229667
 20
1.452189086214266
 30
0.0
 10
0.113420379256454
 20
1.429934312302792
 30
0.0
 10
0.1107568390180287
 20
1.415106844399694
 30
0.0
 10
0.1027436419159853
 20
1.370484922408209
 30
0.0
 10
0.0972661064478584
 20
1.339965899252417
 30
0.0
 10
0.0895136759945154
 20
1.296748916497667
 30
0.0
 10
0.0868906704524997
 20
1.282122644583881
 30
0.0
 10
0.0815669352533322
 20
1.25242887876524
 30
0.0
 10
0.0785185762474707
 20
1.235421462965812
 30
0.0
 10
0.0755286233108407
 20
1.218736234325074
 30
0.0
 10
0.0745813186010888
 20
1.21344960777091
 30
0.0
 10
0.0735585356481925
 20
1.207741394273832
 30
0.0
 10
0.0728599074033408
 20
1.203842232621799
 30
0.0
 10
0.0722356507700602
 20
1.200358061321426
 30
0.0
 10
0.0719370579842714
 20
1.198691504953679
 30
0.0
 10
0.0715050208029864
 20
1.196280085000373
 30
0.0
 10
0.0701749957922316
 20
1.188856480344146
 30
0.0
 10
0.0689674804835227
 20
1.182116641677469
 30
0.0
 10
0.0673246092419774
 20
1.172946816047318
 30
0.0
 10
0.0665813661592333
 20
1.168798461988211
 30
0.0
 10
0.0652512650698022
 20
1.161374871381936
 30
0.0
 10
0.0648865039674203
 20
1.15933907723569
 30
0.0
 10
0.0626942167396607
 20
1.147104716051762
 30
0.0
 10
0.0615312714439413
 20
1.14061576673361
 30
0.0
 10
0.0546963668521457
 20
1.102488885278574
 30
0.0
 10
0.049834515449329
 20
1.075419591363256
 30
0.0
 10
0.0427651598948769
 20
1.036034619708234
 30
0.0
 10
0.0413750091509573
 20
1.028286991696323
 30
0.0
 10
0.039587174762367
 20
1.018319275473452
 30
0.0
 10
0.0389564630355975
 20
1.014802130118772
 30
0.0
 10
0.0376255057209131
 20
1.007378692848636
 30
0.0
 10
0.0365874367580567
 20
1.001587578449485
 30
0.0
 10
0.0357930585359042
 20
0.9971554933875022
 30
0.0
 10
0.0350320519653405
 20
0.9929092504323014
 30
0.0
 10
0.0333571183138774
 20
0.983563231902612
 30
0.0
 10
0.0329472669818093
 20
0.9812762736353315
 30
0.0
 10
0.0307017734942211
 20
0.9687503753887279
 30
0.0
 10
0.0296289639438966
 20
0.962768116335039
 30
0.0
 10
0.0224980698620299
 20
0.9230836380046137
 30
0.0
 10
0.017744487615183
 20
0.8971320779871861
 30
0.0
 10
0.0106441182415927
 20
0.8579421273852438
 30
0.0
 10
0.0093904271120363
 20
0.8509886910341
 30
0.0
 10
0.0067118739468919
 20
0.836038172044117
 30
0.0
 10
0.0052261584345307
 20
0.8276827207899327
 30
0.0
 10
0.0029482751674562
 20
0.8147931828040411
 30
0.0
 10
0.001417367042192
 20
0.806070666193155
 30
0.0
 10
-0.0004768975892391
 20
0.7954000655760415
 30
0.0
 10
-0.0012420876754297
 20
0.7911196079680978
 30
0.0
 10
-0.002425693204795
 20
0.7845210910564031
 30
0.0
 10
-0.0029450075605234
 20
0.7816345042365538
 30
0.0
 10
-0.0038356855811171
 20
0.7766861452090956
 30
0.0
  0
SPLINE
  5
80
330
1F
100
AcDbEntity
  8
0
  6
Continuous
 62
     7
370
    25
100
AcDbSpline
210
0.0
220
0.0
230
1.0
 70
     8
 71
     3
 72
    18
 73
    14
 74
     0
 42
0.000000001
 43
0.00000001
 40
0.0
 40
0.0
 40
0.0
 40
0.0
 40
0.1249999999999978
 40
0.1249999999999978
 40
0.2499999999999956
 40
0.2499999999999956
 40
0.499999999999997
 40
0.499999999999997
 40
0.7499999999999984
 40
0.7499999999999984
 40
0.8749999999999992
 40
0.8749999999999992
 40
1.0
 40
1.0
 40
1.0
 40
1.0
 10
-0.0038356885174898
 20
0.7766861317179345
 30
0.0
 10
-0.0050753975883924
 20
0.770990289845855
 30
0.0
 10
-0.0056560613153964
 20
0.768299223138182
 30
0.0
 10
-0.0078510551210201
 20
0.759514000494925
 30
0.0
 10
-0.0090550877465262
 20
0.7553563873752571
 30
0.0
 10
-0.0131849896603535
 20
0.7433138570184894
 30
0.0
 10
-0.0168514647363588
 20
0.7350367564870324
 30
0.0
 10
-0.0250103739068843
 20
0.7196472290936425
 30
0.0
 10
-0.0296580481529995
 20
0.7121958423147065
 30
0.0
 10
-0.0373647487938545
 20
0.7015820001850095
 30
0.0
 10
-0.0401959573993164
 20
0.6979934323171247
 30
0.0
 10
-0.0454978886278881
 20
0.6915857269837627
 30
0.0
 10
-0.047536734260823
 20
0.6892232808619726
 30
0.0
 10
-0.0513493291071741
 20
0.6848187737113925
 30
0.0
  0
SPLINE
  5
81
330
1F
100
AcDbEntity
  8
0
  6
Continuous
 62
     7
370
    25
100
AcDbSpline
210
0.0
220
0.0
230
1.0
 70
     8
 71
     3
 72
    14
 73
    10
 74
     0
 42
0.000000001
 43
0.00000001
 40
0.0
 40
0.0
 40
0.0
 40
0.0
 40
0.25
 40
0.25
 40
0.4999999999999999
 40
0.4999999999999999
 40
0.75
 40
0.75
 40
1.0
 40
1.0
 40
1.0
 40
1.0
 10
-0.0513493288122645
 20
0.684818773288116
 30
0.0
 10
-0.0461012307128556
 20
0.6772863128851572
 30
0.0
 10
-0.0432875614584105
 20
0.6732412927871211
 30
0.0
 10
-0.0359226482714272
 20
0.6624130090402938
 30
0.0
 10
-0.0326839756425649
 20
0.6575406487919273
 30
0.0
 10
-0.0235462642766699
 20
0.6437845165270195
 30
0.0
 10
-0.0203120215210413
 20
0.6389208110833933
 30
0.0
 10
-0.0130175040108186
 20
0.6280223047929308
 30
0.0
 10
-0.0102697253303043
 20
0.6239435836484579
 30
0.0
 10
-0.0051388938357014
 20
0.6163310666604322
 30
0.0
  0
SPLINE
  5
82
330
1F
100
AcDbEntity
  8
0
  6
Continuous
 62
     7
370
    25
100
AcDbSpline
210
0.0
220
0.0
230
1.0
 70
    24
 71
     3
 72
     8
 73
     4
 74
     0
 42
0.000000001
 43
0.00000001
 40
0.0
 40
0.0
 40
0.0
 40
0.0
 40
1.0
 40
1.0
 40
1.0
 40
1.0
 10
-0.0051388942449164
 20
0.6163310663729752
 30
0.0
 10
-0.0053269494388038
 20
0.6161989651946054
 30
0.0
 10
-0.0055150046326911
 20
0.6160668640162357
 30
0.0
 10
-0.0057030598265785
 20
0.6159347628378657
 30
0.0
  0
SPLINE
  5
83
330
1F
100
AcDbEntity
  8
0
  6
Continuous
 62
     7
370
    25
100
AcDbSpline
210
0.0
220
0.0
230
1.0
 70
     8
 71
     3
 72
    14
 73
    10
 74
     0
 42
0.000000001
 43
0.00000001
 40
0.0
 40
0.0
 40
0.0
 40
0.0
 40
0.25
 40
0.25
 40
0.5
 40
0.5
 40
0.75
 40
0.75
 40
1.0
 40
1.0
 40
1.0
 40
1.0
 10
-0.00570306011698
 20
0.6159347632449043
 30
0.0
 10
-0.0110744604757669
 20
0.6234635355866517
 30
0.0
 10
-0.0137352453898017
 20
0.6271938618363113
 30
0.0
 10
-0.0219754393676832
 20
0.6384584612348334
 30
0.0
 10
-0.0261867190549492
 20
0.6440706359018173
 30
0.0
 10
-0.0344977808401137
 20
0.6548727919359909
 30
0.0
 10
-0.039076615476668
 20
0.6606715332554083
 30
0.0
 10
-0.0473640991683375
 20
0.6709614411801617
 30
0.0
 10
-0.0505072522604051
 20
0.6747909696315466
 30
0.0
 10
-0.0563794701206973
 20
0.6819358829097721
 30
0.0
  0
SPLINE
  5
84
330
1F
100
AcDbEntity
  8
0
  6
Continuous
 62
     7
370
    25
100
AcDbSpline
210
0.0
220
0.0
230
1.0
 70
    24
 71
     3
 72
     8
 73
     4
 74
     0
 42
0.000000001
 43
0.00000001
 40
0.0
 40
0.0
 40
0.0
 40
0.0
 40
1.0
 40
1.0
 40
1.0
 40
1.0
 10
-0.0563794704526132
 20
0.6819358825210469
 30
0.0
 10
-0.0600583527082547
 20
0.6776273369099232
 30
0.0
 10
-0.0637372349638962
 20
0.6733187912987997
 30
0.0
 10
-0.0674161172195376
 20
0.6690102456876761
 30
0.0
  0
SPLINE
  5
85
330
1F
100
AcDbEntity
  8
0
  6
Continuous
 62
     7
370
    25
100
AcDbSpline
210
0.0
220
0.0
230
1.0
 70
     8
 71
     3
 72
    18
 73
    14
 74
     0
 42
0.000000001
 43
0.00000001
 40
0.0
 40
0.0
 40
0.0
 40
0.0
 40
0.1250000000000016
 40
0.1250000000000016
 40
0.2500000000000013
 40
0.2500000000000013
 40
0.5000000000000009
 40
0.5000000000000009
 40
0.7500000000000004
 40
0.7500000000000004
 40
0.8750000000000002
 40
0.8750000000000002
 40
1.0
 40
1.0
 40
1.0
 40
1.0
 10
-0.0674161312956553
 20
0.6690102284323383
 30
0.0
 10
-0.0723573135898023
 20
0.6629530348307013
 30
0.0
 10
-0.074704259676238
 20
0.6601015034759669
 30
0.0
 10
-0.0816313841169663
 20
0.6501821154699512
 30
0.0
 10
-0.0844600684639723
 20
0.6451921420073855
 30
0.0
 10
-0.0916214948661943
 20
0.6294641183626815
 30
0.0
 10
-0.094860334284473
 20
0.6177558802386627
 30
0.0
 10
-0.0974137672116016
 20
0.5946681485553125
 30
0.0
 10
-0.0968779183394469
 20
0.5829060508749573
 30
0.0
 10
-0.0932741636274511
 20
0.5654376695283123
 30
0.0
 10
-0.0915529069049687
 20
0.5597992931107572
 30
0.0
 10
-0.0873513498312051
 20
0.5491917084861994
 30
0.0
 10
-0.0856112908144825
 20
0.5455499823278974
 30
0.0
 10
-0.0822266625622989
 20
0.5385076110870334
 30
0.0
  0
SPLINE
  5
86
330
1F
100
AcDbEntity
  8
0
  6
Continuous
 62
     7
370
    25
100
AcDbSpline
210
0.0
220
0.0
230
1.0
 70
     8
 71
     3
 72
    14
 73
    10
 74
     0
 42
0.000000001
 43
0.00000001
 40
0.0
 40
0.0
 40
0.0
 40
0.0
 40
0.2499999999999999
 40
0.2499999999999999
 40
0.4999999999999999
 40
0.4999999999999999
 40
0.7499999999999999
 40
0.7499999999999999
 40
1.0
 40
1.0
 40
1.0
 40
1.0
 10
-0.0822266621214704
 20
0.5385076113240665
 30
0.0
 10
-0.0741977740391198
 20
0.5428247434032383
 30
0.0
 10
-0.0700710147537135
 20
0.54504642970543
 30
0.0
 10
-0.0583761543977279
 20
0.5516184079355131
 30
0.0
 10
-0.0524466163839938
 20
0.5550921358835654
 30
0.0
 10
-0.0405918229076437
 20
0.5622796149772553
 30
0.0
 10
-0.0346050535091881
 20
0.5660374880262855
 30
0.0
 10
-0.0236805494968989
 20
0.5731239864723556
 30
0.0
 10
-0.0196232500950672
 20
0.5758416795600763
 30
0.0
 10
-0.0120548764767166
 20
0.5809227408230956
 30
0.0
  0
SPLINE
  5
87
330
1F
100
AcDbEntity
  8
0
  6
Continuous
 62
     7
370
    25
100
AcDbSpline
210
0.0
220
0.0
230
1.0
 70
    24
 71
     3
 72
     8
 73
     4
 74
     0
 42
0.000000001
 43
0.00000001
 40
0.0
 40
0.0
 40
0.0
 40
0.0
 40
1.0
 40
1.0
 40
1.0
 40
1.0
 10
-0.0120548761933949
 20
0.5809227404110764
 30
0.0
 10
-0.0119251308796202
 20
0.5807340589283798
 30
0.0
 10
-0.0117953855658455
 20
0.5805453774456834
 30
0.0
 10
-0.0116656402520708
 20
0.5803566959629867
 30
0.0
  0
SPLINE
  5
88
330
1F
100
AcDbEntity
  8
0
  6
Continuous
 62
     7
370
    25
100
AcDbSpline
210
0.0
220
0.0
230
1.0
 70
     8
 71
     3
 72
    14
 73
    10
 74
     0
 42
0.000000001
 43
0.00000001
 40
0.0
 40
0.0
 40
0.0
 40
0.0
 40
0.25
 40
0.25
 40
0.5
 40
0.5
 40
0.75
 40
0.75
 40
1.0
 40
1.0
 40
1.0
 40
1.0
 10
-0.0116656406638046
 20
0.5803566956793049
 30
0.0
 10
-0.0191646921879208
 20
0.5751898995389721
 30
0.0
 10
-0.0223441817519573
 20
0.5729999432301445
 30
0.0
 10
-0.0347264569765135
 20
0.5644536366478494
 30
0.0
 10
-0.0394473325841257
 20
0.5611906311379882
 30
0.0
 10
-0.0513084158019716
 20
0.5529246438514226
 30
0.0
 10
-0.0568352789622951
 20
0.5490380107446846
 30
0.0
 10
-0.0674299668808244
 20
0.5414875016993501
 30
0.0
 10
-0.071384482176129
 20
0.538630831072789
 30
0.0
 10
-0.0787641467173069
 20
0.5332947510802744
 30
0.0
  0
SPLINE
  5
89
330
1F
100
AcDbEntity
  8
0
  6
Continuous
 62
     7
370
    25
100
AcDbSpline
210
0.0
220
0.0
230
1.0
 70
     8
 71
     3
 72
    14
 73
    10
 74
     0
 42
0.000000001
 43
0.00000001
 40
0.0
 40
0.0
 40
0.0
 40
0.0
 40
0.25
 40
0.25
 40
0.5
 40
0.5
 40
0.75
 40
0.75
 40
1.0
 40
1.0
 40
1.0
 40
1.0
 10
-0.0787641464070869
 20
0.5332947506875703
 30
0.0
 10
-0.0733418581033797
 20
0.5264307352403519
 30
0.0
 10
-0.0705145761801323
 20
0.5228779533128765
 30
0.0
 10
-0.0616808977305719
 20
0.5136897100300941
 30
0.0
 10
-0.0567062866714512
 20
0.5093873788079541
 30
0.0
 10
-0.0459021821709345
 20
0.5013387975872701
 30
0.0
 10
-0.040378369468698
 20
0.4978156836701172
 30
0.0
 10
-0.0290270742033383
 20
0.4919171121716552
 30
0.0
 10
-0.0248475963490814
 20
0.4902033739036831
 30
0.0
 10
-0.0167456720821317
 20
0.4869094874345888
 30
0.0
  0
SPLINE
  5
8A
330
1F
100
AcDbEntity
  8
0
  6
Continuous
 62
     7
370
    25
100
AcDbSpline
210
0.0
220
0.0
230
1.0
 70
    24
 71
     3
 72
     8
 73
     4
 74
     0
 42
0.000000001
 43
0.00000001
 40
0.0
 40
0.0
 40
0.0
 40
0.0
 40
1.0
 40
1.0
 40
1.0
 40
1.0
 10
-0.0167456704020874
 20
0.4869094868024175
 30
0.0
 10
-0.0152925530122518
 20
0.4863627041809812
 30
0.0
 10
-0.0138394356224162
 20
0.4858159215595448
 30
0.0
 10
-0.0123863182325806
 20
0.4852691389381086
 30
0.0
  0
SPLINE
  5
8B
330
1F
100
AcDbEntity
  8
0
  6
Continuous
 62
     7
370
    25
100
AcDbSpline
210
0.0
220
0.0
230
1.0
 70
    24
 71
     3
 72
     8
 73
     4
 74
     0
 42
0.000000001
 43
0.00000001
 40
0.0
 40
0.0
 40
0.0
 40
0.0
 40
1.0
 40
1.0
 40
1.0
 40
1.0
 10
-0.0123863180556806
 20
0.48526913940577
 30
0.0
 10
-0.0099345875023971
 20
0.4917506561342488
 30
0.0
 10
-0.0074828569491135
 20
0.4982321728627273
 30
0.0
 10
-0.00503112639583
 20
0.5047136895912062
 30
0.0
  0
SPLINE
  5
8C
330
1F
100
AcDbEntity
  8
0
  6
Continuous
 62
     7
370
    25
100
AcDbSpline
210
0.0
220
0.0
230
1.0
 70
    24
 71
     3
 72
     8
 73
     4
 74
     0
 42
0.000000001
 43
0.00000001
 40
0.0
 40
0.0
 40
0.0
 40
0.0
 40
1.0
 40
1.0
 40
1.0
 40
1.0
 10
-0.0050311267731966
 20
0.5047136900068119
 30
0.0
 10
-0.0107778398031377
 20
0.5110427232966235
 30
0.0
 10
-0.0165245528330789
 20
0.5173717565864348
 30
0.0
 10
-0.02227126586302
 20
0.5237007898762461
 30
0.0
  0
SPLINE
  5
8D
330
1F
100
AcDbEntity
  8
0
  6
Continuous
 62
     7
370
    25
100
AcDbSpline
210
0.0
220
0.0
230
1.0
 70
    24
 71
     3
 72
     8
 73
     4
 74
     0
 42
0.000000001
 43
0.00000001
 40
0.0
 40
0.0
 40
0.0
 40
0.0
 40
1.0
 40
1.0
 40
1.0
 40
1.0
 10
-0.0222712655287794
 20
0.5237007902519328
 30
0.0
 10
-0.0221183528365822
 20
0.523872664105814
 30
0.0
 10
-0.0219654401443851
 20
0.5240445379596952
 30
0.0
 10
-0.0218125274521879
 20
0.5242164118135764
 30
0.0
  0
SPLINE
  5
8E
330
1F
100
AcDbEntity
  8
0
  6
Continuous
 62
     7
370
    25
100
AcDbSpline
210
0.0
220
0.0
230
1.0
 70
    24
 71
     3
 72
     8
 73
     4
 74
     0
 42
0.000000001
 43
0.00000001
 40
0.0
 40
0.0
 40
0.0
 40
0.0
 40
1.0
 40
1.0
 40
1.0
 40
1.0
 10
-0.0218125270866384
 20
0.5242164114722279
 30
0.0
 10
-0.015710789218355
 20
0.5185186360023906
 30
0.0
 10
-0.0096090513500716
 20
0.5128208605325536
 30
0.0
 10
-0.0035073134817881
 20
0.5071230850627164
 30
0.0
  0
SPLINE
  5
8F
330
1F
100
AcDbEntity
  8
0
  6
Continuous
 62
     7
370
    25
100
AcDbSpline
210
0.0
220
0.0
230
1.0
 70
     8
 71
     3
 72
    14
 73
    10
 74
     0
 42
0.000000001
 43
0.00000001
 40
0.0
 40
0.0
 40
0.0
 40
0.0
 40
0.25
 40
0.25
 40
0.5
 40
0.5
 40
0.75
 40
0.75
 40
1.0
 40
1.0
 40
1.0
 40
1.0
 10
-0.0035073133561272
 20
0.5071230856294751
 30
0.0
 10
-0.0019820205608784
 20
0.5140024994559068
 30
0.0
 10
-0.0012606940299083
 20
0.5172508872414914
 30
0.0
 10
0.0010532242638274
 20
0.5279647845745148
 30
0.0
 10
0.0021146371918767
 20
0.5330487847953396
 30
0.0
 10
0.0041665231247827
 20
0.5432043031536467
 30
0.0
 10
0.0052471437464861
 20
0.5487409198329666
 30
0.0
 10
0.0071324538678279
 20
0.558629017175469
 30
0.0
 10
0.0078254636107267
 20
0.5623397015051084
 30
0.0
 10
0.0091172175939077
 20
0.5692666653152341
 30
0.0
  0
SPLINE
  5
90
330
1F
100
AcDbEntity
  8
0
  6
Continuous
 62
     7
370
    25
100
AcDbSpline
210
0.0
220
0.0
230
1.0
 70
    24
 71
     3
 72
     8
 73
     4
 74
     0
 42
0.000000001
 43
0.00000001
 40
0.0
 40
0.0
 40
0.0
 40
0.0
 40
1.0
 40
1.0
 40
1.0
 40
1.0
 10
0.0091172180859497
 20
0.5692666652263372
 30
0.0
 10
0.0093427289951242
 20
0.5692259223850252
 30
0.0
 10
0.0095682399042988
 20
0.5691851795437133
 30
0.0
 10
0.0097937508134733
 20
0.5691444367024013
 30
0.0
  0
SPLINE
  5
91
330
1F
100
AcDbEntity
  8
0
  6
Continuous
 62
     7
370
    25
100
AcDbSpline
210
0.0
220
0.0
230
1.0
 70
     8
 71
     3
 72
    14
 73
    10
 74
     0
 42
0.000000001
 43
0.00000001
 40
0.0
 40
0.0
 40
0.0
 40
0.0
 40
0.25
 40
0.25
 40
0.5
 40
0.5
 40
0.75
 40
0.75
 40
1.0
 40
1.0
 40
1.0
 40
1.0
 10
0.0097937507262627
 20
0.5691444362100626
 30
0.0
 10
0.0085648752211103
 20
0.5622069438650796
 30
0.0
 10
0.0079838086142849
 20
0.5589310387409048
 30
0.0
 10
0.0061150204516344
 20
0.5481319172941517
 30
0.0
 10
0.0052858276851709
 20
0.5432125053143165
 30
0.0
 10
0.0035644931945271
 20
0.5325830450292823
 30
0.0
 10
0.0027343489295657
 20
0.5272107734678908
 30
0.0
 10
0.0012581181142545
 20
0.5172547350694121
 30
0.0
 10
0.000723684763192
 20
0.5135183461289954
 30
0.0
 10
-0.0002713704006593
 20
0.5065433701514266
 30
0.0
  0
SPLINE
  5
92
330
1F
100
AcDbEntity
  8
0
  6
Continuous
 62
     7
370
    25
100
AcDbSpline
210
0.0
220
0.0
230
1.0
 70
    24
 71
     3
 72
     8
 73
     4
 74
     0
 42
0.000000001
 43
0.00000001
 40
0.0
 40
0.0
 40
0.0
 40
0.0
 40
1.0
 40
1.0
 40
1.0
 40
1.0
 10
-0.0002713698640116
 20
0.5065433703728279
 30
0.0
 10
0.0074460691943429
 20
0.50972730089146
 30
0.0
 10
0.0151635082526974
 20
0.5129112314100921
 30
0.0
 10
0.0228809473110519
 20
0.5160951619287244
 30
0.0
  0
SPLINE
  5
93
330
1F
100
AcDbEntity
  8
0
  6
Continuous
 62
     7
370
    25
100
AcDbSpline
210
0.0
220
0.0
230
1.0
 70
    24
 71
     3
 72
     8
 73
     4
 74
     0
 42
0.000000001
 43
0.00000001
 40
0.0
 40
0.0
 40
0.0
 40
0.0
 40
1.0
 40
1.0
 40
1.0
 40
1.0
 10
0.0228809474905941
 20
0.5160951614619163
 30
0.0
 10
0.0229635286971701
 20
0.5158804510932653
 30
0.0
 10
0.0230461099037461
 20
0.5156657407246144
 30
0.0
 10
0.023128691110322
 20
0.5154510303559635
 30
0.0
  0
SPLINE
  5
94
330
1F
100
AcDbEntity
  8
0
  6
Continuous
 62
     7
370
    25
100
AcDbSpline
210
0.0
220
0.0
230
1.0
 70
    24
 71
     3
 72
     8
 73
     4
 74
     0
 42
0.000000001
 43
0.00000001
 40
0.0
 40
0.0
 40
0.0
 40
0.0
 40
1.0
 40
1.0
 40
1.0
 40
1.0
 10
0.0231286906628391
 20
0.5154510301265808
 30
0.0
 10
0.0155211822139271
 20
0.5115513677818846
 30
0.0
 10
0.0079136737650152
 20
0.5076517054371883
 30
0.0
 10
0.0003061653161032
 20
0.5037520430924922
 30
0.0
  0
SPLINE
  5
95
330
1F
100
AcDbEntity
  8
0
  6
Continuous
 62
     7
370
    25
100
AcDbSpline
210
0.0
220
0.0
230
1.0
 70
    24
 71
     3
 72
     8
 73
     4
 74
     0
 42
0.000000001
 43
0.00000001
 40
0.0
 40
0.0
 40
0.0
 40
0.0
 40
1.0
 40
1.0
 40
1.0
 40
1.0
 10
0.0003061653170774
 20
0.5037520425311275
 30
0.0
 10
0.00031819090169
 20
0.496822332737734
 30
0.0
 10
0.0003302164863025
 20
0.4898926229443403
 30
0.0
 10
0.0003422420709151
 20
0.4829629131509467
 30
0.0
  0
SPLINE
  5
96
330
1F
100
AcDbEntity
  8
0
  6
Continuous
 62
     7
370
    25
100
AcDbSpline
210
0.0
220
0.0
230
1.0
 70
    24
 71
     3
 72
     8
 73
     4
 74
     0
 42
0.000000001
 43
0.00000001
 40
0.0
 40
0.0
 40
0.0
 40
0.0
 40
1.0
 40
1.0
 40
1.0
 40
1.0
 10
0.0003422425709159
 20
0.4829629131509466
 30
0.0
 10
0.0018948283806106
 20
0.4829629131509467
 30
0.0
 10
0.0034474141903053
 20
0.4829629131509467
 30
0.0
 10
0.005
 20
0.4829629131509467
 30
0.0
  0
SPLINE
  5
97
330
1F
100
AcDbEntity
  8
0
  6
Continuous
 62
     7
370
    25
100
AcDbSpline
210
0.0
220
0.0
230
1.0
 70
     8
 71
     3
 72
    14
 73
    10
 74
     0
 42
0.000000001
 43
0.00000001
 40
0.0
 40
0.0
 40
0.0
 40
0.0
 40
0.25
 40
0.25
 40
0.5
 40
0.5
 40
0.75
 40
0.75
 40
1.0
 40
1.0
 40
1.0
 40
1.0
 10
0.0050000190464315
 20
0.4829629136509488
 30
0.0
 10
0.0137428124711263
 20
0.4831924274587442
 30
0.0
 10
0.0182614021834352
 20
0.4833248413862498
 30
0.0
 10
0.0309560404043534
 20
0.4848471857172137
 30
0.0
 10
0.037343536955655
 20
0.4861921868687814
 30
0.0
 10
0.0503427652251895
 20
0.4899352470335668
 30
0.0
 10
0.0564667867330725
 20
0.4921922169375105
 30
0.0
 10
0.0680118664121831
 20
0.4977002052966765
 30
0.0
 10
0.0718885059022965
 20
0.5000197503652147
 30
0.0
 10
0.0793807415801123
 20
0.5045343394328297
 30
0.0
  0
SPLINE
  5
98
330
1F
100
AcDbEntity
  8
0
  6
Continuous
 62
     7
370
    25
100
AcDbSpline
210
0.0
220
0.0
230
1.0
 70
     8
 71
     3
 72
    16
 73
    12
 74
     0
 42
0.000000001
 43
0.00000001
 40
0.0
 40
0.0
 40
0.0
 40
0.0
 40
0.2499999999999996
 40
0.2499999999999996
 40
0.4999999999999991
 40
0.4999999999999991
 40
0.7499999999999987
 40
0.7499999999999987
 40
0.8749999999999993
 40
0.8749999999999993
 40
1.0
 40
1.0
 40
1.0
 40
1.0
 10
0.0793807413038305
 20
0.5045343398501082
 30
0.0
 10
0.074352921150408
 20
0.5121280371893473
 30
0.0
 10
0.0716761327056861
 20
0.5161672574641234
 30
0.0
 10
0.0643823109036521
 20
0.5270208893967923
 30
0.0
 10
0.0600429210127152
 20
0.5333835214995558
 30
0.0
 10
0.0529598767904062
 20
0.5436868268209116
 30
0.0
 10
0.0483088197308143
 20
0.5504015984118497
 30
0.0
 10
0.0431163563195121
 20
0.5578835562185714
 30
0.0
 10
0.0403022874501645
 20
0.5619352608919463
 30
0.0
 10
0.0377040787731129
 20
0.5656748730584875
 30
0.0
 10
0.0357550930796804
 20
0.5684793539483324
 30
0.0
 10
0.0331562260313412
 20
0.5722185096447517
 30
0.0
  0
MTEXT
  5
9A
330
1F
100
AcDbEntity
  8
0
  6
Continuous
 62
     7
100
AcDbMText
 10
-0.096753887
 20
0.4819433468
 30
0.0
 40
0.00483362
 41
0.0
 71
     1
 72
     1
  1
SOLIDWORKS Educational Product.
  7
SLDTEXTSTYLE0
 73
     1
 44
1.0
  0
MTEXT
  5
9B
330
1F
100
AcDbEntity
  8
0
  6
Continuous
 62
     7
100
AcDbMText
 10
-0.096753887
 20
0.4746929168
 30
0.0
 40
0.00483362
 41
0.0
 71
     1
 72
     1
  1
For Instructional Use Only.
  7
SLDTEXTSTYLE0
 73
     1
 44
1.0
  0
ENDSEC
  0
SECTION
  2
OBJECTS
  0
DICTIONARY
  5
C
330
0
100
AcDbDictionary
281
     1
  3
ACAD_GROUP
350
D
  3
ACAD_LAYOUT
350
1A
  3
ACAD_MLINESTYLE
350
17
  3
ACAD_PLOTSETTINGS
350
19
  3
ACAD_PLOTSTYLENAME
350
E
  3
ACAD_SCALELIST
350
47
  0
DICTIONARY
  5
D
102
{ACAD_REACTORS
330
C
102
}
330
C
100
AcDbDictionary
281
     1
  0
DICTIONARY
  5
1A
102
{ACAD_REACTORS
330
C
102
}
330
C
100
AcDbDictionary
281
     1
  3
Layout1
350
1E
  3
Layout2
350
26
  3
Model
350
22
  0
DICTIONARY
  5
17
102
{ACAD_REACTORS
330
C
102
}
330
C
100
AcDbDictionary
281
     1
  3
Standard
350
18
  0
DICTIONARY
  5
19
102
{ACAD_REACTORS
330
C
102
}
330
C
100
AcDbDictionary
281
     1
  0
ACDBDICTIONARYWDFLT
  5
E
102
{ACAD_REACTORS
330
C
102
}
330
C
100
AcDbDictionary
281
     1
  3
Normal
350
F
100
AcDbDictionaryWithDefault
340
F
  0
DICTIONARY
  5
47
102
{ACAD_REACTORS
330
C
102
}
330
C
100
AcDbDictionary
281
     1
  3
A0
350
48
  3
A1
350
49
  3
A2
350
4A
  3
A3
350
4B
  3
A4
350
4C
  3
A5
350
4D
  3
A6
350
4E
  3
A7
350
4F
  3
A8
350
50
  3
A9
350
51
  3
B0
350
52
  3
B1
350
53
  3
B2
350
54
  3
B3
350
55
  3
B4
350
56
  3
B5
350
57
  3
B6
350
58
  3
B7
350
59
  3
B8
350
5A
  3
B9
350
5B
  3
C0
350
5C
  3
C1
350
5D
  3
C2
350
5E
  3
C3
350
5F
  3
C4
350
60
  3
C5
350
61
  3
C6
350
62
  3
C7
350
63
  3
C8
350
64
  3
C9
350
65
  3
D0
350
66
  3
D1
350
67
  3
D2
350
68
  0
LAYOUT
  5
1E
102
{ACAD_REACTORS
330
1A
102
}
330
1A
100
AcDbPlotSettings
  1

  2
none_device
  4

  6

 40
0.0
 41
0.0
 42
0.0
 43
0.0
 44
0.0
 45
0.0
 46
0.0
 47
0.0
 48
0.0
 49
0.0
140
0.0
141
0.0
142
1.0
143
1.0
 70
   688
 72
     1
 73
     0
 74
     5
  7

 75
    16
147
1.0
148
0.0
149
0.0
100
AcDbLayout
  1
Layout1
 70
     1
 71
     1
 10
0.0
 20
0.0
 11
420.0
 21
297.0
 12
0.0
 22
0.0
 32
0.0
 14
1.0000000000E+20
 24
1.0000000000E+20
 34
1.0000000000E+20
 15
-1.0000000000E+20
 25
-1.0000000000E+20
 35
-1.0000000000E+20
146
0.0
 13
0.0
 23
0.0
 33
0.0
 16
1.0
 26
0.0
 36
0.0
 17
0.0
 27
1.0
 37
0.0
 76
     0
330
1B
  0
LAYOUT
  5
26
102
{ACAD_REACTORS
330
1A
102
}
330
1A
100
AcDbPlotSettings
  1

  2
none_device
  4

  6

 40
0.0
 41
0.0
 42
0.0
 43
0.0
 44
0.0
 45
0.0
 46
0.0
 47
0.0
 48
0.0
 49
0.0
140
0.0
141
0.0
142
1.0
143
1.0
 70
   688
 72
     1
 73
     0
 74
     5
  7

 75
    16
147
1.0
148
0.0
149
0.0
100
AcDbLayout
  1
Layout2
 70
     1
 71
     2
 10
0.0
 20
0.0
 11
0.0
 21
0.0
 12
0.0
 22
0.0
 32
0.0
 14
0.0
 24
0.0
 34
0.0
 15
0.0
 25
0.0
 35
0.0
146
0.0
 13
0.0
 23
0.0
 33
0.0
 16
1.0
 26
0.0
 36
0.0
 17
0.0
 27
1.0
 37
0.0
 76
     0
330
23
  0
LAYOUT
  5
22
102
{ACAD_REACTORS
330
1A
102
}
330
1A
100
AcDbPlotSettings
  1

  2
none_device
  4
ANSI_A_(11.00_x_8.50_Inches)
  6

 40
6.35
 41
19.05
 42
6.35000508
 43
19.05000254
 44
279.4
 45
215.9
 46
107.1444070878
 47
-94.9121686864
 48
0.0
 49
0.0
140
0.0
141
0.0
142
6.2721161855
143
1.0
 70
  1696
 72
     0
 73
     0
 74
     0
  7

 75
     0
147
0.0179189148
148
-1300.4909072572
149
0.0
100
AcDbLayout
  1
Model
 70
     1
 71
     0
 10
0.0
 20
0.0
 11
420.0
 21
297.0
 12
0.0
 22
0.0
 32
0.0
 14
-0.096753887
 24
0.4829629132
 34
0.0
 15
0.425738914
 25
1.8246153557
 35
0.0
146
0.0
 13
0.0
 23
0.0
 33
0.0
 16
1.0
 26
0.0
 36
0.0
 17
0.0
 27
1.0
 37
0.0
 76
     0
330
1F
331
29
  0
MLINESTYLE
  5
18
102
{ACAD_REACTORS
330
17
102
}
330
17
100
AcDbMlineStyle
  2
Standard
 70
     0
  3

 62
   256
 51
90.0
 52
90.0
 71
     2
 49
0.5
 62
   256
  6
BYLAYER
 49
-0.5
 62
   256
  6
BYLAYER
  0
ACDBPLACEHOLDER
  5
F
102
{ACAD_REACTORS
330
E
102
}
330
E
  0
SCALE
  5
48
102
{ACAD_REACTORS
330
47
102
}
330
47
100
AcDbScale
 70
     0
300
1:1
140
1.0
141
1.0
290
     1
  0
SCALE
  5
49
102
{ACAD_REACTORS
330
47
102
}
330
47
100
AcDbScale
 70
     0
300
1:2
140
1.0
141
2.0
290
     0
  0
SCALE
  5
4A
102
{ACAD_REACTORS
330
47
102
}
330
47
100
AcDbScale
 70
     0
300
1:4
140
1.0
141
4.0
290
     0
  0
SCALE
  5
4B
102
{ACAD_REACTORS
330
47
102
}
330
47
100
AcDbScale
 70
     0
300
1:5
140
1.0
141
5.0
290
     0
  0
SCALE
  5
4C
102
{ACAD_REACTORS
330
47
102
}
330
47
100
AcDbScale
 70
     0
300
1:8
140
1.0
141
8.0
290
     0
  0
SCALE
  5
4D
102
{ACAD_REACTORS
330
47
102
}
330
47
100
AcDbScale
 70
     0
300
1:10
140
1.0
141
10.0
290
     0
  0
SCALE
  5
4E
102
{ACAD_REACTORS
330
47
102
}
330
47
100
AcDbScale
 70
     0
300
1:16
140
1.0
141
16.0
290
     0
  0
SCALE
  5
4F
102
{ACAD_REACTORS
330
47
102
}
330
47
100
AcDbScale
 70
     0
300
1:20
140
1.0
141
20.0
290
     0
  0
SCALE
  5
50
102
{ACAD_REACTORS
330
47
102
}
330
47
100
AcDbScale
 70
     0
300
1:30
140
1.0
141
30.0
290
     0
  0
SCALE
  5
51
102
{ACAD_REACTORS
330
47
102
}
330
47
100
AcDbScale
 70
     0
300
1:40
140
1.0
141
40.0
290
     0
  0
SCALE
  5
52
102
{ACAD_REACTORS
330
47
102
}
330
47
100
AcDbScale
 70
     0
300
1:50
140
1.0
141
50.0
290
     0
  0
SCALE
  5
53
102
{ACAD_REACTORS
330
47
102
}
330
47
100
AcDbScale
 70
     0
300
1:100
140
1.0
141
100.0
290
     0
  0
SCALE
  5
54
102
{ACAD_REACTORS
330
47
102
}
330
47
100
AcDbScale
 70
     0
300
2:1
140
2.0
141
1.0
290
     0
  0
SCALE
  5
55
102
{ACAD_REACTORS
330
47
102
}
330
47
100
AcDbScale
 70
     0
300
4:1
140
4.0
141
1.0
290
     0
  0
SCALE
  5
56
102
{ACAD_REACTORS
330
47
102
}
330
47
100
AcDbScale
 70
     0
300
8:1
140
8.0
141
1.0
290
     0
  0
SCALE
  5
57
102
{ACAD_REACTORS
330
47
102
}
330
47
100
AcDbScale
 70
     0
300
10:1
140
10.0
141
1.0
290
     0
  0
SCALE
  5
58
102
{ACAD_REACTORS
330
47
102
}
330
47
100
AcDbScale
 70
     0
300
100:1
140
100.0
141
1.0
290
     0
  0
SCALE
  5
59
102
{ACAD_REACTORS
330
47
102
}
330
47
100
AcDbScale
 70
     0
300
1/128" = 1'-0"
140
0.0078125
141
12.0
290
     0
  0
SCALE
  5
5A
102
{ACAD_REACTORS
330
47
102
}
330
47
100
AcDbScale
 70
     0
300
1/64" = 1'-0"
140
0.015625
141
12.0
290
     0
  0
SCALE
  5
5B
102
{ACAD_REACTORS
330
47
102
}
330
47
100
AcDbScale
 70
     0
300
1/32" = 1'-0"
140
0.03125
141
12.0
290
     0
  0
SCALE
  5
5C
102
{ACAD_REACTORS
330
47
102
}
330
47
100
AcDbScale
 70
     0
300
1/16" = 1'-0"
140
0.0625
141
12.0
290
     0
  0
SCALE
  5
5D
102
{ACAD_REACTORS
330
47
102
}
330
47
100
AcDbScale
 70
     0
300
3/32" = 1'-0"
140
0.09375
141
12.0
290
     0
  0
SCALE
  5
5E
102
{ACAD_REACTORS
330
47
102
}
330
47
100
AcDbScale
 70
     0
300
1/8" = 1'-0"
140
0.125
141
12.0
290
     0
  0
SCALE
  5
5F
102
{ACAD_REACTORS
330
47
102
}
330
47
100
AcDbScale
 70
     0
300
3/16" = 1'-0"
140
0.1875
141
12.0
290
     0
  0
SCALE
  5
60
102
{ACAD_REACTORS
330
47
102
}
330
47
100
AcDbScale
 70
     0
300
1/4" = 1'-0"
140
0.25
141
12.0
290
     0
  0
SCALE
  5
61
102
{ACAD_REACTORS
330
47
102
}
330
47
100
AcDbScale
 70
     0
300
3/8" = 1'-0"
140
0.375
141
12.0
290
     0
  0
SCALE
  5
62
102
{ACAD_REACTORS
330
47
102
}
330
47
100
AcDbScale
 70
     0
300
1/2" = 1'-0"
140
0.5
141
12.0
290
     0
  0
SCALE
  5
63
102
{ACAD_REACTORS
330
47
102
}
330
47
100
AcDbScale
 70
     0
300
3/4" = 1'-0"
140
0.75
141
12.0
290
     0
  0
SCALE
  5
64
102
{ACAD_REACTORS
330
47
102
}
330
47
100
AcDbScale
 70
     0
300
1" = 1'-0"
140
1.0
141
12.0
290
     0
  0
SCALE
  5
65
102
{ACAD_REACTORS
330
47
102
}
330
47
100
AcDbScale
 70
     0
300
1-1/2" = 1'-0"
140
1.5
141
12.0
290
     0
  0
SCALE
  5
66
102
{ACAD_REACTORS
330
47
102
}
330
47
100
AcDbScale
 70
     0
300
3" = 1'-0"
140
3.0
141
12.0
290
     0
  0
SCALE
  5
67
102
{ACAD_REACTORS
330
47
102
}
330
47
100
AcDbScale
 70
     0
300
6" = 1'-0"
140
6.0
141
12.0
290
     0
  0
SCALE
  5
68
102
{ACAD_REACTORS
330
47
102
}
330
47
100
AcDbScale
 70
     0
300
1'-0" = 1'-0"
140
12.0
141
12.0
290
     0
  0
ENDSEC
  0
EOF
